<svg viewBox="0 0 304.8 151.1616" width="5000px" height="2479.685234397637px" xmlns="http://www.w3.org/2000/svg" xmlns:xlink="http://www.w3.org/1999/xlink" preserveAspectRatio="none"><defs></defs><style>.apF9rFCf0Scolors-0 {fill:#333258;fill-opacity:1;}.apF9rFCf0Scolors-1 {fill:#50A0E1;fill-opacity:1;}.companyName {fill:#333258;fill-opacity:1;}</style><g opacity="1" transform="rotate(0 0 116.54310000000004)">
<svg width="304.8" height="34.6185" x="0" y="116.54310000000004" version="1.1" preserveAspectRatio="none" viewBox="0.76 -31.24 358.52 40.72">
  <g transform="matrix(1 0 0 1 0 0)" class="companyName"><path d="M27.48-1.72Q27.60-1.48 27.60-1.20L27.60-1.20Q27.60-0.72 27.24-0.36Q26.88 0 26.40 0L26.40 0Q25.60 0 25.28-0.76L25.28-0.76L22.32-7.84L6.04-7.84L3.08-0.76Q2.80 0 1.96 0L1.96 0Q1.40 0 1.08-0.36Q0.76-0.72 0.76-1.20L0.76-1.20Q0.76-1.48 0.88-1.72L0.88-1.72L13-30.40Q13.32-31.24 14.16-31.24L14.16-31.24Q14.96-31.24 15.32-30.40L15.32-30.40L27.48-1.72ZM6.96-10L21.40-10L14.16-27.28L6.96-10Z M43.72-22.16Q46.64-22.16 48.94-20.96Q51.24-19.76 52.54-17.46Q53.84-15.16 53.84-11.96L53.84-11.96L53.84-1.20Q53.84-0.68 53.50-0.34Q53.16 0 52.64 0L52.64 0Q52.12 0 51.78-0.34Q51.44-0.68 51.44-1.20L51.44-1.20L51.44-11.96Q51.44-15.76 49.30-17.76Q47.16-19.76 43.72-19.76L43.72-19.76Q41.60-19.76 39.86-18.94Q38.12-18.12 37.12-16.66Q36.12-15.20 36.12-13.44L36.12-13.44L36.12-1.20Q36.12-0.68 35.80-0.34Q35.48 0 34.92 0L34.92 0Q34.40 0 34.06-0.34Q33.72-0.68 33.72-1.20L33.72-1.20L33.72-20.68Q33.72-21.24 34.06-21.56Q34.40-21.88 34.92-21.88L34.92-21.88Q35.48-21.88 35.80-21.56Q36.12-21.24 36.12-20.68L36.12-20.68L36.12-18.60Q37.48-20.28 39.44-21.22Q41.40-22.16 43.72-22.16L43.72-22.16Z M72.64-22.12Q75.76-22.12 78.32-20.66Q80.88-19.20 82.34-16.64Q83.80-14.08 83.80-10.92L83.80-10.92L83.80-1.20Q83.80-0.68 83.48-0.34Q83.16 0 82.60 0L82.60 0Q82.08 0 81.74-0.34Q81.40-0.68 81.40-1.20L81.40-1.20L81.40-4.32Q80.08-2.20 77.78-0.98Q75.48 0.24 72.64 0.24L72.64 0.24Q69.48 0.24 66.92-1.22Q64.36-2.68 62.90-5.24Q61.44-7.80 61.44-10.92L61.44-10.92Q61.44-14.08 62.90-16.64Q64.36-19.20 66.92-20.66Q69.48-22.12 72.64-22.12L72.64-22.12ZM72.64-2Q75.12-2 77.12-3.16Q79.12-4.32 80.26-6.36Q81.40-8.40 81.40-10.92L81.40-10.92Q81.40-13.44 80.26-15.48Q79.12-17.52 77.12-18.70Q75.12-19.88 72.64-19.88L72.64-19.88Q70.16-19.88 68.16-18.70Q66.16-17.52 65-15.48Q63.84-13.44 63.84-10.92L63.84-10.92Q63.84-8.40 65-6.36Q66.16-4.32 68.16-3.16Q70.16-2 72.64-2L72.64-2Z M91-30.04Q91-30.60 91.34-30.92Q91.68-31.24 92.20-31.24L92.20-31.24Q92.76-31.24 93.08-30.92Q93.40-30.60 93.40-30.04L93.40-30.04L93.40-6.60Q93.40-4.76 94.18-3.58Q94.96-2.40 96.20-2.40L96.20-2.40L97.20-2.40Q97.64-2.40 97.92-2.08Q98.20-1.76 98.20-1.20L98.20-1.20Q98.20-0.68 97.88-0.34Q97.56 0 97 0L97 0L96.20 0Q93.92 0 92.46-1.84Q91-3.68 91-6.60L91-6.60L91-30.04Z M122-21.84Q122.76-21.52 122.76-20.92L122.76-20.92Q122.76-20.76 122.60-20.36L122.60-20.36L109.16 8.76Q108.80 9.48 108.24 9.48L108.24 9.48Q108 9.48 107.68 9.36L107.68 9.36Q106.92 9.04 106.92 8.44L106.92 8.44Q106.92 8.28 107.08 7.88L107.08 7.88L111.08-0.76Q111.04-0.80 110.92-1.04L110.92-1.04L102.16-20.24Q102-20.56 102-20.88L102-20.88Q102-21.48 102.68-21.80L102.68-21.80Q103-21.96 103.32-21.96L103.32-21.96Q103.92-21.96 104.24-21.28L104.24-21.28L112.36-3.52L120.52-21.24Q120.88-21.96 121.44-21.96L121.44-21.96Q121.72-21.96 122-21.84L122-21.84Z M138.64-2.44Q139.20-2.44 139.54-2.10Q139.88-1.76 139.88-1.20L139.88-1.20Q139.88-0.68 139.54-0.34Q139.20 0 138.64 0L138.64 0L137.72 0Q135.52 0 133.80-1Q132.08-2 131.12-3.74Q130.16-5.48 130.16-7.68L130.16-7.68L130.16-18.92L127.04-18.92Q126.56-18.92 126.26-19.22Q125.96-19.52 125.96-20L125.96-20Q125.96-20.48 126.26-20.78Q126.56-21.08 127.04-21.08L127.04-21.08L130.16-21.08L130.16-27.60Q130.16-28.16 130.50-28.50Q130.84-28.84 131.36-28.84L131.36-28.84Q131.92-28.84 132.26-28.50Q132.60-28.16 132.60-27.60L132.60-27.60L132.60-21.08L137.88-21.08Q138.36-21.08 138.66-20.78Q138.96-20.48 138.96-20L138.96-20Q138.96-19.52 138.66-19.22Q138.36-18.92 137.88-18.92L137.88-18.92L132.60-18.92L132.60-7.68Q132.60-5.36 134.04-3.90Q135.48-2.44 137.76-2.44L137.76-2.44L138.64-2.44Z M147.68-20.68Q147.68-21.24 148.02-21.56Q148.36-21.88 148.88-21.88L148.88-21.88Q149.44-21.88 149.76-21.56Q150.08-21.24 150.08-20.68L150.08-20.68L150.08-1.20Q150.08-0.68 149.76-0.34Q149.44 0 148.88 0L148.88 0Q148.36 0 148.02-0.34Q147.68-0.68 147.68-1.20L147.68-1.20L147.68-20.68ZM148.88-30.20Q149.64-30.20 150.18-29.72Q150.72-29.24 150.72-28.36L150.72-28.36Q150.72-27.56 150.18-27.02Q149.64-26.48 148.84-26.48L148.84-26.48Q148.04-26.48 147.52-27.02Q147-27.56 147-28.36L147-28.36Q147-29.24 147.56-29.72Q148.12-30.20 148.88-30.20L148.88-30.20Z M169.16-22.08Q171.72-22.08 173.84-21.08Q175.96-20.08 177.52-18.12L177.52-18.12Q177.80-17.72 177.80-17.44L177.80-17.44Q177.80-16.88 177.24-16.56L177.24-16.56Q176.96-16.32 176.60-16.32L176.60-16.32Q176.04-16.32 175.68-16.80L175.68-16.80Q173.12-19.84 169.16-19.84L169.16-19.84Q166.84-19.84 165.04-18.70Q163.24-17.56 162.26-15.52Q161.28-13.48 161.28-10.92L161.28-10.92Q161.28-8.40 162.36-6.36Q163.44-4.32 165.36-3.16Q167.28-2 169.76-2L169.76-2Q173.28-2 175.40-3.96L175.40-3.96Q175.76-4.32 176.24-4.32L176.24-4.32Q176.68-4.32 176.96-4.04L176.96-4.04Q177.36-3.68 177.36-3.16L177.36-3.16Q177.36-2.72 177.04-2.44L177.04-2.44Q175.64-1.16 173.76-0.46Q171.88 0.24 169.76 0.24L169.76 0.24Q166.68 0.24 164.20-1.22Q161.72-2.68 160.30-5.24Q158.88-7.80 158.88-10.92L158.88-10.92Q158.88-14.08 160.20-16.62Q161.52-19.16 163.88-20.62Q166.24-22.08 169.16-22.08L169.16-22.08Z M193.28-22.12Q198.32-22.12 200.92-18.52L200.92-18.52Q201.16-18.24 201.16-17.84L201.16-17.84Q201.16-17.28 200.52-16.92L200.52-16.92Q200.12-16.76 199.92-16.76L199.92-16.76Q199.32-16.76 198.92-17.28L198.92-17.28Q196.88-19.88 193.20-19.88L193.20-19.88Q190.76-19.88 189.32-18.82Q187.88-17.76 187.88-16.20L187.88-16.20Q187.88-14.60 189.26-13.64Q190.64-12.68 193.88-12.20L193.88-12.20Q198.12-11.60 199.98-9.94Q201.84-8.28 201.84-5.92L201.84-5.92Q201.84-4.08 200.66-2.68Q199.48-1.28 197.52-0.52Q195.56 0.24 193.24 0.24L193.24 0.24Q190.92 0.24 188.72-0.58Q186.52-1.40 185.08-3.08L185.08-3.08Q184.80-3.40 184.80-3.80L184.80-3.80Q184.80-4.36 185.32-4.72L185.32-4.72Q185.56-4.92 186-4.92L186-4.92Q186.56-4.92 186.92-4.48L186.92-4.48Q188.92-2.04 193.36-2.04L193.36-2.04Q196.52-2.04 198.02-3.16Q199.52-4.28 199.52-6.04L199.52-6.04Q199.52-9.20 193.40-10.08L193.40-10.08Q189.52-10.64 187.54-12.20Q185.56-13.76 185.56-15.96L185.56-15.96Q185.56-18.88 187.70-20.50Q189.84-22.12 193.28-22.12L193.28-22.12Z M218.12-12.16Q218.64-12.16 219-11.80Q219.36-11.44 219.36-10.92L219.36-10.92Q219.36-10.40 219-10.06Q218.64-9.72 218.12-9.72L218.12-9.72L208.40-9.72Q207.88-9.72 207.54-10.06Q207.20-10.40 207.20-10.92L207.20-10.92Q207.20-11.44 207.54-11.80Q207.88-12.16 208.40-12.16L208.40-12.16L218.12-12.16Z M249.96-22.16Q252.36-22.16 254.24-20.96Q256.12-19.76 257.16-17.62Q258.20-15.48 258.20-12.76L258.20-12.76L258.20-1.20Q258.20-0.68 257.88-0.34Q257.56 0 257 0L257 0Q256.48 0 256.14-0.34Q255.80-0.68 255.80-1.20L255.80-1.20L255.80-12.76Q255.80-15.84 254.16-17.80Q252.52-19.76 249.96-19.76L249.96-19.76Q247.16-19.76 245.44-17.92Q243.72-16.08 243.80-13.04L243.80-13.04L243.80-12.76L243.80-1.20Q243.80-0.68 243.48-0.34Q243.16 0 242.60 0L242.60 0Q242.08 0 241.74-0.34Q241.40-0.68 241.40-1.20L241.40-1.20L241.40-12.76Q241.40-15.84 239.76-17.80Q238.12-19.76 235.56-19.76L235.56-19.76Q232.80-19.76 231.04-18Q229.28-16.24 229.28-13.44L229.28-13.44L229.28-1.20Q229.28-0.68 228.96-0.34Q228.64 0 228.08 0L228.08 0Q227.56 0 227.22-0.34Q226.88-0.68 226.88-1.20L226.88-1.20L226.88-20.68Q226.88-21.24 227.22-21.56Q227.56-21.88 228.08-21.88L228.08-21.88Q228.64-21.88 228.96-21.56Q229.28-21.24 229.28-20.68L229.28-20.68L229.28-19.12Q230.40-20.56 232.04-21.36Q233.68-22.16 235.56-22.16L235.56-22.16Q237.88-22.16 239.72-21.02Q241.56-19.88 242.64-17.88L242.64-17.88Q243.72-19.88 245.64-21.02Q247.56-22.16 249.96-22.16L249.96-22.16Z M277-22.12Q280.12-22.12 282.68-20.66Q285.24-19.20 286.70-16.64Q288.16-14.08 288.16-10.92L288.16-10.92Q288.16-7.80 286.70-5.24Q285.24-2.68 282.68-1.22Q280.12 0.24 277 0.24L277 0.24Q273.84 0.24 271.28-1.22Q268.72-2.68 267.26-5.24Q265.80-7.80 265.80-10.92L265.80-10.92Q265.80-14.08 267.26-16.64Q268.72-19.20 271.28-20.66Q273.84-22.12 277-22.12L277-22.12ZM277-19.88Q274.52-19.88 272.52-18.70Q270.52-17.52 269.36-15.48Q268.20-13.44 268.20-10.92L268.20-10.92Q268.20-8.40 269.36-6.36Q270.52-4.32 272.52-3.16Q274.52-2 277-2L277-2Q279.48-2 281.48-3.16Q283.48-4.32 284.62-6.36Q285.76-8.40 285.76-10.92L285.76-10.92Q285.76-13.44 284.62-15.48Q283.48-17.52 281.48-18.70Q279.48-19.88 277-19.88L277-19.88Z M316.12-31.24Q316.68-31.24 317-30.92Q317.32-30.60 317.32-30.04L317.32-30.04L317.32-10.80L317.32-10.72Q317.28-7.64 315.80-5.12Q314.32-2.60 311.78-1.18Q309.24 0.24 306.16 0.24L306.16 0.24Q303 0.24 300.44-1.22Q297.88-2.68 296.42-5.24Q294.96-7.80 294.96-10.96L294.96-10.96Q294.96-14.08 296.42-16.64Q297.88-19.20 300.44-20.66Q303-22.12 306.16-22.12L306.16-22.12Q309-22.12 311.30-20.90Q313.60-19.68 314.92-17.56L314.92-17.56L314.92-30.04Q314.92-30.60 315.26-30.92Q315.60-31.24 316.12-31.24L316.12-31.24ZM306.16-2Q308.64-2 310.64-3.18Q312.64-4.36 313.78-6.40Q314.92-8.44 314.92-10.96L314.92-10.96Q314.92-13.48 313.78-15.52Q312.64-17.56 310.64-18.72Q308.64-19.88 306.16-19.88L306.16-19.88Q303.68-19.88 301.68-18.72Q299.68-17.56 298.52-15.52Q297.36-13.48 297.36-10.96L297.36-10.96Q297.36-8.44 298.52-6.40Q299.68-4.36 301.68-3.18Q303.68-2 306.16-2L306.16-2Z M335.60-22.08Q338.52-22.08 340.82-20.70Q343.12-19.32 344.40-16.88Q345.68-14.44 345.68-11.32L345.68-11.32Q345.68-10.80 345.36-10.50Q345.04-10.20 344.52-10.20L344.52-10.20L327.76-10.20Q327.88-7.84 329-5.98Q330.12-4.12 332-3.08Q333.88-2.04 336.20-2.04L336.20-2.04Q337.76-2.04 339.34-2.58Q340.92-3.12 341.84-4L341.84-4Q342.24-4.32 342.68-4.32L342.68-4.32Q343.12-4.32 343.40-4.08L343.40-4.08Q343.84-3.72 343.84-3.24L343.84-3.24Q343.84-2.84 343.48-2.48L343.48-2.48Q342.20-1.32 340.14-0.56Q338.08 0.20 336.20 0.20L336.20 0.20Q333.04 0.20 330.58-1.22Q328.12-2.64 326.72-5.18Q325.32-7.72 325.32-10.92L325.32-10.92Q325.32-14.16 326.62-16.70Q327.92-19.24 330.26-20.66Q332.60-22.08 335.60-22.08L335.60-22.08ZM335.60-19.84Q332.48-19.84 330.34-17.76Q328.20-15.68 327.80-12.28L327.80-12.28L343.36-12.28Q343.08-15.68 340.96-17.76Q338.84-19.84 335.60-19.84L335.60-19.84Z M352.08-30.04Q352.08-30.60 352.42-30.92Q352.76-31.24 353.28-31.24L353.28-31.24Q353.84-31.24 354.16-30.92Q354.48-30.60 354.48-30.04L354.48-30.04L354.48-6.60Q354.48-4.76 355.26-3.58Q356.04-2.40 357.28-2.40L357.28-2.40L358.28-2.40Q358.72-2.40 359.00-2.08Q359.28-1.76 359.28-1.20L359.28-1.20Q359.28-0.68 358.96-0.34Q358.64 0 358.08 0L358.08 0L357.28 0Q355.00 0 353.54-1.84Q352.08-3.68 352.08-6.60L352.08-6.60L352.08-30.04Z"></path></g>
</svg>
</g><g opacity="1" transform="rotate(0 102.39999999999998 0)">
<svg width="100" height="97.5113" x="102.39999999999998" y="0" version="1.1" preserveAspectRatio="none" viewBox="20 22 160 156.01800537109375">
  <g transform="matrix(1 0 0 1 0 0)"><g><path d="M99.937 165.24c3.547 0 6.422 2.86 6.422 6.389s-2.875 6.389-6.422 6.389-6.422-2.86-6.422-6.389 2.875-6.389 6.422-6.389zm0-23.804c3.929 0 7.115 3.168 7.115 7.077s-3.185 7.077-7.115 7.077-7.115-3.168-7.115-7.077c.001-3.908 3.186-7.077 7.115-7.077zm23.739 0c3.929 0 7.115 3.168 7.115 7.077s-3.185 7.077-7.115 7.077c-3.929 0-7.115-3.168-7.115-7.077.001-3.908 3.186-7.077 7.115-7.077zm-47.771 0c3.929 0 7.115 3.168 7.115 7.077s-3.185 7.077-7.115 7.077-7.115-3.168-7.115-7.077c.001-3.908 3.186-7.077 7.115-7.077zm24.032-23.256c4.352 0 7.881 3.51 7.881 7.839 0 4.329-3.528 7.839-7.881 7.839s-7.881-3.51-7.881-7.839c.001-4.33 3.529-7.839 7.881-7.839zm23.739 0c4.352 0 7.881 3.51 7.881 7.839 0 4.329-3.528 7.839-7.881 7.839s-7.881-3.51-7.881-7.839c.001-4.33 3.529-7.839 7.881-7.839zm23.742 0c4.352 0 7.881 3.51 7.881 7.839 0 4.329-3.528 7.839-7.881 7.839s-7.881-3.51-7.881-7.839c0-4.33 3.528-7.839 7.881-7.839zm-95.326 0c4.352 0 7.881 3.51 7.881 7.839 0 4.329-3.528 7.839-7.881 7.839s-7.881-3.51-7.881-7.839c.001-4.33 3.529-7.839 7.881-7.839zm23.813 0c4.352 0 7.881 3.51 7.881 7.839 0 4.329-3.528 7.839-7.881 7.839s-7.881-3.51-7.881-7.839c0-4.33 3.529-7.839 7.881-7.839zm95.386-24.77c4.81 0 8.709 3.879 8.709 8.664s-3.899 8.664-8.709 8.664-8.709-3.879-8.709-8.664c-.001-4.785 3.898-8.664 8.709-8.664zm-23.873 0c4.81 0 8.709 3.879 8.709 8.664s-3.899 8.664-8.709 8.664-8.709-3.879-8.709-8.664c-.001-4.785 3.899-8.664 8.709-8.664zm-23.742 0c4.81 0 8.709 3.879 8.709 8.664s-3.899 8.664-8.709 8.664-8.709-3.879-8.709-8.664 3.899-8.664 8.709-8.664zm-23.739 0c4.81 0 8.709 3.879 8.709 8.664s-3.899 8.664-8.709 8.664-8.709-3.879-8.709-8.664 3.899-8.664 8.709-8.664zm-24.032 0c4.81 0 8.709 3.879 8.709 8.664s-3.899 8.664-8.709 8.664-8.709-3.879-8.709-8.664 3.899-8.664 8.709-8.664zm-47.196 0c4.81 0 8.709 3.879 8.709 8.664s-3.899 8.664-8.709 8.664S20 106.858 20 102.074c0-4.785 3.899-8.664 8.709-8.664zm23.383 0c4.81 0 8.709 3.879 8.709 8.664s-3.899 8.664-8.709 8.664-8.709-3.879-8.709-8.664 3.899-8.664 8.709-8.664zm95.326-24.319c5.488 0 9.937 4.425 9.937 9.885s-4.449 9.885-9.937 9.885-9.937-4.425-9.937-9.885 4.449-9.885 9.937-9.885zm-71.513-.292c5.488 0 9.937 4.425 9.937 9.885 0 5.459-4.449 9.885-9.937 9.885s-9.937-4.425-9.937-9.885c0-5.459 4.449-9.885 9.937-9.885zm47.771 0c5.488 0 9.937 4.425 9.937 9.885 0 5.459-4.449 9.885-9.937 9.885s-9.937-4.425-9.937-9.885c0-5.459 4.449-9.885 9.937-9.885zm-71.584 0c5.488 0 9.937 4.425 9.937 9.885 0 5.459-4.449 9.885-9.937 9.885s-9.937-4.425-9.937-9.885c0-5.459 4.449-9.885 9.937-9.885zm47.845 0c5.488 0 9.937 4.425 9.937 9.885 0 5.459-4.449 9.885-9.937 9.885S90 84.144 90 78.684c0-5.459 4.449-9.885 9.937-9.885zM75.905 46.053c5.488 0 9.937 4.425 9.937 9.885s-4.449 9.885-9.937 9.885-9.937-4.425-9.937-9.885 4.449-9.885 9.937-9.885zm47.771 0c5.488 0 9.937 4.425 9.937 9.885s-4.449 9.885-9.937 9.885-9.937-4.425-9.937-9.885 4.449-9.885 9.937-9.885zm-23.739 0c5.488 0 9.937 4.425 9.937 9.885s-4.449 9.885-9.937 9.885S90 61.398 90 55.938s4.449-9.885 9.937-9.885z" data-color="1" class="apF9rFCf0Scolors-0"></path><path d="M111.025 33.029c0 6.091-4.964 11.029-11.088 11.029-6.124 0-11.088-4.938-11.088-11.029S93.813 22 99.937 22c6.124 0 11.088 4.938 11.088 11.029z" data-color="2" class="apF9rFCf0Scolors-1"></path><path opacity=".8" d="M75.905 46.053c5.488 0 9.937 4.425 9.937 9.885s-4.449 9.885-9.937 9.885-9.937-4.425-9.937-9.885 4.449-9.885 9.937-9.885zm47.771 0c5.488 0 9.937 4.425 9.937 9.885s-4.449 9.885-9.937 9.885-9.937-4.425-9.937-9.885 4.449-9.885 9.937-9.885zm-23.739 0c5.488 0 9.937 4.425 9.937 9.885s-4.449 9.885-9.937 9.885S90 61.398 90 55.938s4.449-9.885 9.937-9.885z" data-color="2" class="apF9rFCf0Scolors-1"></path><path opacity=".65" d="M147.418 69.091c5.488 0 9.937 4.425 9.937 9.885s-4.449 9.885-9.937 9.885-9.937-4.425-9.937-9.885 4.449-9.885 9.937-9.885zm-71.513-.292c5.488 0 9.937 4.425 9.937 9.885 0 5.459-4.449 9.885-9.937 9.885s-9.937-4.425-9.937-9.885c0-5.459 4.449-9.885 9.937-9.885zm47.771 0c5.488 0 9.937 4.425 9.937 9.885 0 5.459-4.449 9.885-9.937 9.885s-9.937-4.425-9.937-9.885c0-5.459 4.449-9.885 9.937-9.885zm-71.584 0c5.488 0 9.937 4.425 9.937 9.885 0 5.459-4.449 9.885-9.937 9.885s-9.937-4.425-9.937-9.885c0-5.459 4.449-9.885 9.937-9.885zm47.845 0c5.488 0 9.937 4.425 9.937 9.885 0 5.459-4.449 9.885-9.937 9.885S90 84.144 90 78.684c0-5.459 4.449-9.885 9.937-9.885z" data-color="2" class="apF9rFCf0Scolors-1"></path><path opacity=".5" d="M171.291 93.41c4.81 0 8.709 3.879 8.709 8.664s-3.899 8.664-8.709 8.664-8.709-3.879-8.709-8.664 3.898-8.664 8.709-8.664zm-23.873 0c4.81 0 8.709 3.879 8.709 8.664s-3.899 8.664-8.709 8.664-8.709-3.879-8.709-8.664 3.899-8.664 8.709-8.664zm-23.742 0c4.81 0 8.709 3.879 8.709 8.664s-3.899 8.664-8.709 8.664-8.709-3.879-8.709-8.664 3.899-8.664 8.709-8.664zm-23.739 0c4.81 0 8.709 3.879 8.709 8.664s-3.899 8.664-8.709 8.664-8.709-3.879-8.709-8.664 3.899-8.664 8.709-8.664zm-24.032 0c4.81 0 8.709 3.879 8.709 8.664s-3.899 8.664-8.709 8.664-8.709-3.879-8.709-8.664 3.899-8.664 8.709-8.664zm-47.196 0c4.81 0 8.709 3.879 8.709 8.664s-3.899 8.664-8.709 8.664S20 106.859 20 102.074s3.899-8.664 8.709-8.664zm23.383 0c4.81 0 8.709 3.879 8.709 8.664s-3.899 8.664-8.709 8.664-8.709-3.879-8.709-8.664 3.899-8.664 8.709-8.664z" data-color="2" class="apF9rFCf0Scolors-1"></path><path opacity=".35" d="M99.937 118.18c4.352 0 7.881 3.51 7.881 7.839s-3.528 7.839-7.881 7.839-7.881-3.51-7.881-7.839 3.529-7.839 7.881-7.839zm23.739 0c4.352 0 7.881 3.51 7.881 7.839s-3.528 7.839-7.881 7.839-7.881-3.51-7.881-7.839 3.529-7.839 7.881-7.839zm23.742 0c4.352 0 7.881 3.51 7.881 7.839s-3.528 7.839-7.881 7.839-7.881-3.51-7.881-7.839 3.528-7.839 7.881-7.839zm-95.326 0c4.352 0 7.881 3.51 7.881 7.839s-3.528 7.839-7.881 7.839-7.881-3.51-7.881-7.839 3.529-7.839 7.881-7.839zm23.813 0c4.352 0 7.881 3.51 7.881 7.839s-3.528 7.839-7.881 7.839-7.881-3.51-7.881-7.839 3.529-7.839 7.881-7.839z" data-color="2" class="apF9rFCf0Scolors-1"></path><path opacity=".2" d="M99.937 141.436c3.929 0 7.115 3.168 7.115 7.077s-3.185 7.077-7.115 7.077-7.115-3.168-7.115-7.077c.001-3.908 3.186-7.077 7.115-7.077zm23.739 0c3.929 0 7.115 3.168 7.115 7.077s-3.185 7.077-7.115 7.077c-3.929 0-7.115-3.168-7.115-7.077.001-3.908 3.186-7.077 7.115-7.077zm-47.771 0c3.929 0 7.115 3.168 7.115 7.077s-3.185 7.077-7.115 7.077-7.115-3.168-7.115-7.077c.001-3.908 3.186-7.077 7.115-7.077z" data-color="2" class="apF9rFCf0Scolors-1"></path></g></g>
</svg>
</g></svg>