<svg xmlns="http://www.w3.org/2000/svg" width="24" height="24" viewBox="0 0 24 24" fill="none">
  <path d="M14.5027 16.2863L11.6835 19.1054C10.7444 20.0446 9.61293 20.5142 8.28915 20.5143C6.96537 20.5144 5.83396 20.0449 4.89492 19.1059C3.95588 18.1668 3.48627 17.0353 3.48608 15.7112C3.4859 14.3872 3.95538 13.2556 4.89453 12.3164L7.71369 9.49725L8.83558 10.6191L6.01641 13.4383C5.38832 14.0664 5.07428 14.8239 5.07428 15.7109C5.07428 16.5979 5.38832 17.3554 6.01641 17.9835C6.6445 18.6116 7.40204 18.9257 8.28903 18.9257C9.17603 18.9257 9.93357 18.6116 10.5617 17.9835L13.3808 15.1644L14.5027 16.2863ZM9.75615 15.3657L8.63427 14.2438L14.2438 8.63423L15.3657 9.75611L9.75615 15.3657ZM16.2863 14.5027L15.1644 13.3808L17.9836 10.5616C18.6117 9.93353 18.9257 9.17599 18.9257 8.289C18.9257 7.402 18.6117 6.64446 17.9836 6.01638C17.3555 5.38829 16.598 5.07424 15.711 5.07424C14.824 5.07424 14.0664 5.38829 13.4383 6.01638L10.6192 8.83554L9.49729 7.71366L12.3165 4.89449C13.2556 3.95534 14.3871 3.48573 15.7109 3.48564C17.0346 3.48555 18.166 3.95503 19.1051 4.89406C20.0441 5.8331 20.5137 6.96464 20.5139 8.2887C20.5141 9.61275 20.0446 10.7444 19.1055 11.6835L16.2863 14.5027Z" fill="#969696"/>
</svg>