<svg xmlns="http://www.w3.org/2000/svg" width="24" height="24" viewBox="0 0 24 24" fill="none">
  <path d="M4.99997 21.5C4.30127 21.5 3.70993 21.258 3.22595 20.774C2.74198 20.29 2.5 19.6987 2.5 19V16.1154H5.5V2.5H19.5V19C19.5 19.6987 19.258 20.29 18.774 20.774C18.29 21.258 17.6987 21.5 17 21.5H4.99997ZM17 20C17.2833 20 17.5208 19.9041 17.7125 19.7125C17.9041 19.5208 18 19.2833 18 19V3.99998H6.99998V16.1154H16V19C16 19.2833 16.0958 19.5208 16.2875 19.7125C16.4791 19.9041 16.7166 20 17 20ZM8.1923 8.69225V7.1923H16.8077V8.69225H8.1923ZM8.1923 11.5769V10.0769H16.8077V11.5769H8.1923ZM4.99997 20H14.5V17.6153H3.99997V19C3.99997 19.2833 4.09581 19.5208 4.28747 19.7125C4.47914 19.9041 4.71664 20 4.99997 20ZM4.99997 20H3.99997H14.5H4.99997Z" fill="#969696"/>
</svg>