<svg xmlns="http://www.w3.org/2000/svg" width="24" height="24" viewBox="0 0 24 24" fill="none">
  <path d="M19.6035 6.79346L18.8446 5.15586L17.207 4.39699L18.8446 3.63809L19.6035 2.00049L20.3624 3.63809L22 4.39699L20.3624 5.15586L19.6035 6.79346ZM9.37024 6.79346L8.61137 5.15586L6.97377 4.39699L8.61137 3.63809L9.37024 2.00049L10.1291 3.63809L11.7667 4.39699L10.1291 5.15586L9.37024 6.79346ZM19.6035 17.0267L18.8446 15.3891L17.207 14.6302L18.8446 13.8714L19.6035 12.2338L20.3624 13.8714L22 14.6302L20.3624 15.3891L19.6035 17.0267ZM6.29503 19.7626L4.23791 17.7055C4.0793 17.5449 4 17.3508 4 17.1232C4 16.8957 4.0793 16.7026 4.23791 16.544L13.9079 6.89147C14.0685 6.73288 14.2626 6.65358 14.4902 6.65358C14.7177 6.65358 14.9108 6.73288 15.0694 6.89147L17.1265 8.94859C17.2851 9.10923 17.3644 9.30333 17.3644 9.53089C17.3644 9.75843 17.2851 9.9515 17.1265 10.1101L7.45653 19.7626C7.2959 19.9212 7.10181 20.0005 6.87426 20.0005C6.6467 20.0005 6.45362 19.9212 6.29503 19.7626ZM14.4799 10.7941L15.7534 9.52061L14.4799 8.24713L13.2064 9.52061L14.4799 10.7941Z" fill="#1F1F1F"/>
</svg>