<svg xmlns="http://www.w3.org/2000/svg" width="24" height="24" viewBox="0 0 24 24" fill="none">
  <path d="M18.1802 5.26666C17.9314 5.01876 17.5605 4.93408 17.2297 5.05344L4.47205 9.60967C4.1286 9.73183 3.89074 10.048 3.86883 10.4116C3.84702 10.7761 4.0438 11.1178 4.37092 11.2818L8.54977 13.3705L13.8905 9.55602L10.0751 14.8978L12.1637 19.0769C12.3196 19.3859 12.6357 19.58 12.9793 19.58C12.9984 19.58 13.0167 19.5789 13.0349 19.5781C13.3994 19.5562 13.7156 19.3193 13.8386 18.9749L18.3949 6.21718C18.5125 5.88637 18.4287 5.51552 18.1799 5.2667L18.1802 5.26666Z" fill="black" fill-opacity="0.2"/>
</svg>