<svg xmlns="http://www.w3.org/2000/svg" width="24" height="24" viewBox="0 0 24 24" fill="none">
  <path fill-rule="evenodd" clip-rule="evenodd" d="M9.23678 3.3501H14.7632L15.1075 6.11803C15.1847 6.15788 15.2603 6.2004 15.3342 6.24562C15.3963 6.28358 15.4578 6.32252 15.5188 6.36244L18.0874 5.27779L20.8486 10.0711L18.6201 11.7671V12.2482L20.8287 13.9291L18.0666 18.7239L15.5153 17.6375C15.4492 17.6798 15.382 17.7209 15.3138 17.7608C15.2457 17.8008 15.1772 17.8388 15.1084 17.8748L14.7632 20.6501H9.23678L8.89251 17.8822C8.81529 17.8423 8.73969 17.7998 8.66578 17.7546C8.60373 17.7166 8.54221 17.6777 8.48122 17.6378L5.91262 18.7224L3.15137 13.9291L5.37985 12.2331V11.7671L3.15137 10.0711L5.91262 5.27779L8.48355 6.36342C8.55008 6.3209 8.61763 6.27955 8.68619 6.23935C8.7543 6.19943 8.82276 6.16141 8.8916 6.12536L9.23678 3.3501ZM10.3851 4.6501L10.0911 7.01415L9.7436 7.15965C9.61289 7.21439 9.47957 7.28116 9.34366 7.36084C9.20293 7.44334 9.06868 7.53137 8.94077 7.62487L8.64353 7.84212L6.46549 6.9224L4.84863 9.72913L6.74697 11.1739L6.69328 11.5516C6.68395 11.6172 6.67985 11.6766 6.67985 11.7301V12.2701C6.67985 12.3236 6.68395 12.383 6.69328 12.4486L6.74697 12.8263L4.84863 14.2711L6.46549 17.0778L8.64353 16.1581L8.94077 16.3753C9.07249 16.4716 9.20695 16.5617 9.34417 16.6456C9.46231 16.7179 9.58962 16.7808 9.72689 16.8338L10.0896 16.974L10.3851 19.3501H13.6149L13.9089 16.986L14.2564 16.8405C14.3871 16.7858 14.5204 16.719 14.6563 16.6394C14.7971 16.5569 14.9313 16.4688 15.0592 16.3753L15.3575 16.1573L17.5155 17.0763L19.1315 14.2711L17.1839 12.7888L17.3051 12.3624C17.3172 12.32 17.3201 12.29 17.3201 12.2701V11.7301C17.3201 11.6766 17.316 11.6172 17.3067 11.5516L17.253 11.1739L19.1514 9.72913L17.5345 6.9224L15.3565 7.84212L15.0592 7.62487C14.9275 7.52859 14.793 7.43852 14.6558 7.35458C14.5377 7.2823 14.4104 7.21944 14.2731 7.16638L13.9104 7.02619L13.6149 4.6501H10.3851ZM9.59613 9.56446C10.2585 8.89053 11.0869 8.5501 12.0398 8.5501C12.9827 8.5501 13.8051 8.89266 14.4707 9.56163C15.1362 10.2305 15.4759 11.0555 15.4759 12.0001C15.4759 12.9447 15.1362 13.7697 14.4707 14.4386C13.8051 15.1075 12.9827 15.4501 12.0398 15.4501C11.0869 15.4501 10.2585 15.1097 9.59613 14.4357C8.93815 13.7663 8.60373 12.9422 8.60373 12.0001C8.60373 11.058 8.93815 10.2339 9.59613 9.56446ZM12.0398 9.8501C11.4272 9.8501 10.9355 10.0563 10.5233 10.4757C10.1066 10.8996 9.90373 11.3955 9.90373 12.0001C9.90373 12.6047 10.1066 13.1006 10.5233 13.5245C10.9355 13.9439 11.4272 14.1501 12.0398 14.1501C12.6359 14.1501 13.1269 13.946 13.5492 13.5216C13.9716 13.0971 14.1759 12.6021 14.1759 12.0001C14.1759 11.3981 13.9716 10.9031 13.5492 10.4786C13.1269 10.0542 12.6359 9.8501 12.0398 9.8501Z" fill="#969696"/>
</svg>